<svg width="188" height="20" viewBox="0 0 188 20" fill="none" xmlns="http://www.w3.org/2000/svg">
<path d="M6.41477 19.4404C9.95759 19.4404 12.8296 16.4385 12.8296 12.7356C12.8296 9.03257 9.95759 6.03076 6.41477 6.03076C2.872 6.03076 0 9.03257 0 12.7356C0 16.4385 2.872 19.4404 6.41477 19.4404Z" fill="#D6D331"/>
<path d="M17.7422 0.176125C13.111 0.176125 9.31634 3.7 8.59663 8.31162C8.56535 8.47514 8.54243 8.67981 8.51115 8.87604C8.51115 8.87604 7.63496 17.1835 1.97119 17.4778C1.97119 17.4778 3.81741 19.6364 6.44587 19.6038C9.07438 19.571 16.0837 19.6038 16.0837 19.6038V19.4402C16.6157 19.5383 17.1789 19.6038 17.7735 19.6038C22.9053 19.6038 27.0671 15.2538 27.0671 9.88995C27.0671 4.52609 22.874 0.176125 17.7422 0.176125Z" fill="#82C652"/>
<path d="M28.7257 4.8532C26.3788 4.8532 24.2823 6.06329 22.9993 7.89486C22.9993 7.89486 21.7164 9.46477 19.3695 15.4501C17.9927 18.9169 14.9574 19.6038 14.9574 19.6038H28.6944C32.6059 19.6038 35.7664 16.3004 35.7664 12.2121C35.7976 8.15653 32.6372 4.8532 28.7257 4.8532Z" fill="#3D8471"/>
<path d="M40.3752 11.6492C40.3752 16.3286 43.8164 19.6199 48.3375 19.6199C51.8239 19.6199 54.6578 17.7839 55.715 14.5599H52.0937C51.3513 16.0823 50.0018 16.8212 48.315 16.8212C45.5709 16.8212 43.614 14.8061 43.614 11.6492C43.614 8.46986 45.5709 6.47719 48.315 6.47719C50.0018 6.47719 51.3513 7.21605 52.0937 8.71614H55.715C54.6578 5.51443 51.8239 3.65609 48.3375 3.65609C43.8164 3.65609 40.3752 6.96976 40.3752 11.6492ZM61.5535 13.306C61.5535 10.9103 62.6777 10.1939 64.5448 10.1939H65.3771V6.90257C63.6449 6.90257 62.3404 7.731 61.5535 9.00719V7.08171H58.4044V19.4856H61.5535V13.306ZM79.2614 7.08171H76.0898V13.9105C76.0898 15.9032 75.0101 16.9779 73.3009 16.9779C71.6366 16.9779 70.5344 15.9032 70.5344 13.9105V7.08171H67.3853V14.3583C67.3853 17.7616 69.4772 19.6423 72.3786 19.6423C73.9309 19.6423 75.3029 18.9706 76.0898 17.9183V19.4856H79.2614V7.08171ZM92.0396 15.948C91.9497 11.4029 85.0449 12.8134 85.0449 10.5521C85.0449 9.83562 85.6519 9.36543 86.8216 9.36543C88.0586 9.36543 88.8235 10.0148 88.9135 10.9775H91.9272C91.7474 8.51462 89.9257 6.88019 86.9115 6.88019C83.8303 6.88019 81.9857 8.53705 81.9857 10.5969C81.9857 15.142 89.0259 13.7314 89.0259 15.948C89.0259 16.6645 88.3509 17.2242 87.1138 17.2242C85.8543 17.2242 84.9774 16.5078 84.865 15.5674H81.6934C81.8283 17.8735 84.0102 19.687 87.1368 19.687C90.173 19.687 92.0396 18.075 92.0396 15.948ZM106.658 13.2836C106.658 9.36543 103.846 6.88019 100.248 6.88019C96.6492 6.88019 93.8374 9.36543 93.8374 13.2836C93.8374 17.1794 96.5588 19.687 100.158 19.687C103.779 19.687 106.658 17.1794 106.658 13.2836ZM97.0314 13.2836C97.0314 10.7984 98.5383 9.61171 100.203 9.61171C101.867 9.61171 103.419 10.7984 103.419 13.2836C103.419 15.7465 101.822 16.9555 100.158 16.9555C98.4709 16.9555 97.0314 15.7465 97.0314 13.2836ZM114.321 9.455C115.941 9.455 117.245 10.485 117.29 12.1194H111.374C111.622 10.4178 112.814 9.455 114.321 9.455ZM120.236 15.5898H116.84C116.435 16.4182 115.693 17.0899 114.344 17.0899C112.769 17.0899 111.509 16.0599 111.352 14.224H120.462C120.529 13.821 120.552 13.418 120.552 13.015C120.552 9.32067 118.01 6.88019 114.411 6.88019C110.722 6.88019 108.158 9.36543 108.158 13.2836C108.158 17.1794 110.79 19.687 114.411 19.687C117.492 19.687 119.562 17.8735 120.236 15.5898ZM122.085 11.6492C122.085 16.3286 125.526 19.6199 130.047 19.6199C133.534 19.6199 136.367 17.7839 137.425 14.5599H133.803C133.061 16.0823 131.711 16.8212 130.025 16.8212C127.281 16.8212 125.324 14.8061 125.324 11.6492C125.324 8.46986 127.281 6.47719 130.025 6.47719C131.711 6.47719 133.061 7.21605 133.803 8.71614H137.425C136.367 5.51443 133.534 3.65609 130.047 3.65609C125.526 3.65609 122.085 6.96976 122.085 11.6492ZM140.114 19.4856H143.263V2.91724H140.114V19.4856ZM158.407 13.2836C158.407 9.36543 155.596 6.88019 151.997 6.88019C148.398 6.88019 145.587 9.36543 145.587 13.2836C145.587 17.1794 148.309 19.687 151.907 19.687C155.529 19.687 158.407 17.1794 158.407 13.2836ZM148.781 13.2836C148.781 10.7984 150.288 9.61171 151.952 9.61171C153.617 9.61171 155.169 10.7984 155.169 13.2836C155.169 15.7465 153.572 16.9555 151.907 16.9555C150.221 16.9555 148.781 15.7465 148.781 13.2836ZM172.481 7.08171H169.31V13.9105C169.31 15.9032 168.23 16.9779 166.521 16.9779C164.856 16.9779 163.754 15.9032 163.754 13.9105V7.08171H160.605V14.3583C160.605 17.7616 162.697 19.6423 165.598 19.6423C167.15 19.6423 168.522 18.9706 169.31 17.9183V19.4856H172.481V7.08171ZM174.778 13.2389C174.778 17.1122 177.297 19.687 180.469 19.687C182.426 19.687 183.82 18.7915 184.562 17.6496V19.4856H187.756V2.91724H184.562V8.80571C183.708 7.64143 182.133 6.88019 180.491 6.88019C177.297 6.88019 174.778 9.36543 174.778 13.2389ZM184.584 13.2836C184.584 15.6345 183.01 16.9331 181.278 16.9331C179.591 16.9331 177.994 15.5898 177.994 13.2389C177.994 10.888 179.591 9.63414 181.278 9.63414C183.01 9.63414 184.584 10.9327 184.584 13.2836Z" fill="black"/>
</svg>
